<?xml version="1.0" encoding="utf-8"?>
<!-- Generator: Adobe Illustrator 22.1.0, SVG Export Plug-In . SVG Version: 6.00 Build 0)  -->
<svg version="1.1" id="Layer_1" xmlns="http://www.w3.org/2000/svg" xmlns:xlink="http://www.w3.org/1999/xlink" x="0px" y="0px"
	 viewBox="0 0 1080 1080" style="enable-background:new 0 0 1080 1080;" xml:space="preserve">
<style type="text/css">
	.st0{fill:#FFFFFF;}
</style>
<path class="st0" d="M539.9,0.1C241.7,0.1,0,241.8,0,540.1C0,838.3,241.7,1080,539.9,1080c298.2,0,540-241.7,540-539.9
	C1079.9,241.8,838.2,0.1,539.9,0.1z M539.9,94c102.4,0,196.6,35,271.9,93.3c-54.2,69.9-129,125.2-224.4,165.6
	c-45.7-83.7-97.9-165.4-156.9-244.7C465.6,99.2,502.2,94,539.9,94z M338.7,142.5c59.9,78.4,113,159.2,159.1,242.1
	c-109.4,32.2-239.9,48.7-390.8,49.8C138.3,306.8,224.2,200.8,338.7,142.5z M93.9,540c0-3.9,0.5-7.6,0.6-11.5
	c173.1-0.3,322.5-20.1,447.7-59.5c10.5,21.4,20.5,42.8,30.1,64.5C420.3,581,295,678.4,197.2,825C132.8,747.7,93.9,648.4,93.9,540z
	 M539.9,986.1c-103.2,0-198-35.5-273.7-94.6c88.6-139,201.7-229.4,341.8-271.2c41.7,108.9,72.4,220.9,92,335.7
	C650.2,975.2,596.4,986.1,539.9,986.1z M787.5,910.8c-19.7-105.9-48.6-209.3-86.4-310.3c84.4-11.9,177.3-8.8,278.9,8.8
	C960.4,734.7,888.9,843,787.5,910.8z M665.2,511.6c-11-25.3-22.4-50.6-34.5-75.6c103.9-45,187.4-106.1,249.7-183.7
	c60.7,71.7,98.8,162.8,104.4,262.5C868.9,495.9,762.3,494.9,665.2,511.6z"/>
</svg>
