<?xml version="1.0" encoding="utf-8"?>
<!-- Generator: Adobe Illustrator 22.1.0, SVG Export Plug-In . SVG Version: 6.00 Build 0)  -->
<svg version="1.1" id="Capa_1" xmlns="http://www.w3.org/2000/svg" xmlns:xlink="http://www.w3.org/1999/xlink" x="0px" y="0px"
	 viewBox="0 0 510 510" style="enable-background:new 0 0 510 510;" xml:space="preserve">
<style type="text/css">
	.st0{fill:#FFFFFF;}
</style>
<g>
	<path class="st0" d="M475.8,133.2c-22.8-39.1-53.7-70-92.8-92.8C343.9,17.6,301.3,6.2,255,6.2c-46.3,0-88.9,11.4-128,34.2
		c-39.1,22.8-70,53.7-92.8,92.8C11.4,172.3,0,215,0,261.2c0,55.6,16.2,105.5,48.6,149.9c32.4,44.4,74.3,75.1,125.7,92.1
		c6,1.1,10.4,0.3,13.3-2.3c2.9-2.7,4.3-6,4.3-10c0-0.7-0.1-6.6-0.2-17.9c-0.1-11.3-0.2-21.1-0.2-29.5l-7.6,1.3
		c-4.9,0.9-11,1.3-18.4,1.2c-7.4-0.1-15.1-0.9-23.1-2.3c-8-1.4-15.4-4.8-22.2-10c-6.9-5.2-11.7-12-14.6-20.4l-3.3-7.6
		c-2.2-5.1-5.7-10.7-10.5-16.9c-4.8-6.2-9.6-10.4-14.4-12.6l-2.3-1.7c-1.5-1.1-3-2.4-4.3-4c-1.3-1.5-2.3-3.1-3-4.6
		c-0.7-1.6-0.1-2.8,1.7-3.8s5-1.5,9.6-1.5l6.6,1c4.4,0.9,9.9,3.5,16.4,8c6.5,4.4,11.9,10.2,16.1,17.3c5.1,9.1,11.2,16,18.4,20.8
		c7.2,4.8,14.4,7.1,21.7,7.1s13.6-0.6,18.9-1.7c5.3-1.1,10.3-2.8,14.9-5c2-14.8,7.4-26.2,16.3-34.2c-12.6-1.3-24-3.3-34-6
		c-10.1-2.7-20.5-7-31.2-13c-10.7-6-19.6-13.4-26.7-22.2c-7.1-8.9-12.9-20.5-17.4-34.9c-4.5-14.4-6.8-31-6.8-49.8
		c0-26.8,8.7-49.6,26.2-68.4c-8.2-20.1-7.4-42.7,2.3-67.7c6.4-2,15.9-0.5,28.6,4.5c12.6,5,21.9,9.2,27.7,12.8
		c5.9,3.5,10.6,6.5,14.1,9c20.6-5.8,41.8-8.6,63.7-8.6s43.2,2.9,63.8,8.6l12.6-8c8.6-5.3,18.8-10.2,30.5-14.6
		c11.7-4.4,20.7-5.6,26.9-3.6c10,25,10.8,47.6,2.7,67.7c17.5,18.8,26.2,41.6,26.2,68.4c0,18.8-2.3,35.5-6.8,50
		c-4.5,14.5-10.4,26.1-17.6,34.9c-7.2,8.7-16.2,16.1-26.9,22.1c-10.7,6-21.1,10.3-31.2,13c-10.1,2.7-21.4,4.7-34,6
		c11.5,10,17.3,25.7,17.3,47.1V491c0,4,1.4,7.3,4.2,10c2.8,2.7,7.1,3.4,13.1,2.3c51.4-17,93.2-47.8,125.7-92.1
		c32.4-44.4,48.6-94.3,48.6-149.9C510,215,498.6,172.3,475.8,133.2z"/>
</g>
</svg>
