<?xml version="1.0" encoding="utf-8"?>
<!-- Generator: Adobe Illustrator 22.1.0, SVG Export Plug-In . SVG Version: 6.00 Build 0)  -->
<svg version="1.1" id="Capa_1" xmlns="http://www.w3.org/2000/svg" xmlns:xlink="http://www.w3.org/1999/xlink" x="0px" y="0px"
	 viewBox="0 0 510 510" style="enable-background:new 0 0 510 510;" xml:space="preserve">
<style type="text/css">
	.st0{fill:#FFFFFF;}
</style>
<g id="XMLID_323_">
	<path id="XMLID_328_" class="st0" d="M354.1,509.3H156.7c-86,0-155.9-69.9-155.9-155.9V155.9C0.7,69.9,70.7,0,156.7,0h197.4
		C440.1,0,510,69.9,510,155.9v197.4C510,439.3,440.1,509.3,354.1,509.3z M156.7,38.1C91.7,38.1,38.9,91,38.9,155.9v197.4
		c0,64.9,52.8,117.8,117.8,117.8h197.4c64.9,0,117.8-52.8,117.8-117.8V155.9C471.9,91,419,38.1,354.1,38.1H156.7z"/>
	<path id="XMLID_325_" class="st0" d="M255.4,383.4c-71,0-128.8-57.8-128.8-128.8c0-71,57.8-128.8,128.8-128.8
		c71,0,128.8,57.8,128.8,128.8C384.2,325.7,326.4,383.4,255.4,383.4z M255.4,164.9c-49.5,0-89.8,40.3-89.8,89.8
		c0,49.5,40.3,89.8,89.8,89.8c49.5,0,89.8-40.3,89.8-89.8C345.1,205.1,304.9,164.9,255.4,164.9z"/>
	<path id="XMLID_324_" class="st0" d="M431.7,111.8c0,18.5-15,33.5-33.5,33.5c-18.5,0-33.5-15-33.5-33.5c0-18.5,15-33.5,33.5-33.5
		C416.7,78.3,431.7,93.3,431.7,111.8z"/>
</g>
</svg>
