<?xml version="1.0" encoding="utf-8"?>
<!-- Generator: Adobe Illustrator 22.1.0, SVG Export Plug-In . SVG Version: 6.00 Build 0)  -->
<svg version="1.1" id="Layer_1" xmlns="http://www.w3.org/2000/svg" xmlns:xlink="http://www.w3.org/1999/xlink" x="0px" y="0px"
	 viewBox="0 0 1080 879" style="enable-background:new 0 0 1080 879;" xml:space="preserve">
<style type="text/css">
	.st0{fill:#FFFFFF;}
</style>
<path class="st0" d="M339.602 878.667C747.198 878.667 970.097 541.006 970.097 248.209C970.097 238.616 969.849 229.06 969.479 219.565C1012.75 188.288 1050.33 149.258 1080 104.839C1040.32 122.468 997.542 134.362 952.789 139.715C998.531 112.295 1033.64 68.8767 1050.21 17.139C1007.31 42.5319 959.959 60.989 909.52 70.9286C868.97 27.8571 811.484 0.919092 747.692 0.919092C625.302 0.919092 526.154 100.154 526.154 222.482C526.154 239.876 528.009 256.789 531.841 273.008C347.638 263.749 184.45 175.579 75.1646 41.5058C56.1262 74.2297 45.1236 112.294 45.1236 152.869C45.1236 229.752 84.1894 297.611 143.777 337.319C107.431 336.194 73.1864 326.205 43.3924 309.589C43.2688 310.516 43.2692 311.444 43.2692 312.42C43.2692 419.74 119.67 509.333 221.044 529.657C202.5 534.714 182.843 537.446 162.692 537.446C148.351 537.446 134.505 536.036 121.03 533.452C149.216 621.486 231.058 685.55 327.981 687.355C252.198 746.782 156.635 782.201 52.7887 782.201C34.9865 782.201 17.3077 781.187 0 779.135C98.0358 841.975 214.492 878.667 339.602 878.667Z"/>
</svg>
